<svg xmlns="http://www.w3.org/2000/svg" width="1239" height="768" fill="none"><path fill="#9D44B5" d="M81.101 381.955V205.698h34.737v169.761zM143.594 381.955V192.832h27.018l6.947 36.281-13.509-5.79q19.105-21.228 37.246-27.789 18.333-6.561 35.702-6.562 41.49 0 59.245 23.93 17.948 23.93 17.948 64.843v104.21h-34.737v-104.21q0-30.105-11.193-44T230.05 219.85q-19.105 0-35.123 8.491-15.824 8.298-20.842 26.632l4.246-21.228v148.21zM397.901 385.815q-25.088 0-41.684-5.983-16.404-5.982-23.158-10.614l4.245-33.579q6.176 5.405 21.807 12.351 15.632 6.948 37.246 6.948 18.334 0 27.982-6.176 9.843-6.175 9.843-17.368 0-9.842-6.369-15.825-6.175-6.175-15.052-9.649-8.685-3.666-16.404-5.789-12.93-3.474-26.825-8.685-13.701-5.403-23.157-16.017-9.457-10.614-9.457-29.719 0-14.474 6.948-27.404 6.947-13.123 22.579-21.228 15.631-8.106 41.491-8.106 18.912 0 30.684 4.053 11.966 3.86 20.649 8.298l-4.245 31.65q-8.298-6.948-19.299-11.773t-27.017-4.824q-16.21 0-26.439 6.175-10.227 5.983-10.228 19.299t10.807 18.912q11 5.597 33.193 12.351 6.948 1.93 16.018 5.597 9.263 3.666 17.947 9.842 8.685 6.175 14.281 16.21 5.789 9.843 5.789 24.702 0 12.544-5.982 25.667-5.982 12.93-21.614 21.807t-44.579 8.877M489.125 444.271V192.832h27.018l6.175 43.229-9.649-6.948q11.965-18.526 29.527-29.334 17.56-10.806 43.035-10.807 25.859 0 44.386 13.123 18.526 13.123 28.368 35.509 9.842 22.194 9.842 49.79t-9.263 49.982q-9.263 22.194-27.597 35.316-18.333 13.123-45.736 13.123-22.579 0-40.913-9.263-18.14-9.456-26.245-28.176l5.789-6.947v114.903zm89.544-89.333q25.281 0 39.369-17.755 14.28-17.947 14.28-49.789t-14.28-49.597q-14.088-17.947-39.369-17.947-15.631 0-28.561 7.526-12.737 7.334-20.456 22.386-7.72 14.86-7.72 37.632 0 23.736 7.72 38.596t20.456 22q12.93 6.948 28.561 6.948M690.406 381.955V192.832h34.737v189.123zm0-231.579V111.78h34.737v38.596zM753.175 381.955V192.832h28.562l4.245 31.263q14.474-17.948 27.597-26.438 13.315-8.685 28.368-8.685 4.825 0 8.877 1.158l-3.473 38.211a34 34 0 0 0-5.404-.772q-2.702-.386-6.175-.386-15.053 0-27.79 6.755-12.543 6.562-17.754 14.473v133.544zM957.105 385.803q-33.386 0-56.158-13.702t-34.544-36.28q-11.579-22.771-11.579-49.983 0-26.437 10.807-48.438 11-22 31.649-35.123 20.842-13.316 50.176-13.316 23.544 0 41.877 9.456 18.521 9.264 28.947 27.211c7.08 11.836 10.61 26.246 10.61 43.228 0 2.702-.12 5.661-.38 8.877-.13 3.088-.52 6.304-1.16 9.649H890.333q2.51 26.246 12.544 40.913t25.281 20.649q15.245 5.982 33.193 5.982 13.123 0 27.403-2.702 14.281-2.701 27.016-8.491l4.63 27.404q-10.995 4.824-26.821 9.842-15.825 4.824-36.474 4.824m-63.684-122.351H993q0-13.316-5.018-23.157-5.018-9.843-15.245-15.053-10.228-5.404-26.053-5.404-23.158 0-35.702 11.579-12.35 11.386-17.561 32.035M1133.04 385.803c-16.08 0-30.62-4.374-43.61-13.123-13-8.748-23.36-20.52-31.07-35.315-7.6-14.796-11.39-31.328-11.39-49.597 0-17.368 3.47-33.579 10.42-48.631q10.62-22.58 29.91-36.281c12.87-9.263 28.11-13.895 45.74-13.895 12.61 0 24.77 2.766 36.47 8.298 11.84 5.404 21.42 14.474 28.76 27.211l-7.34 5.017V55.747h34.74v326.197h-30.88l-6.56-40.141 8.88 6.176c-5.53 12.479-14.22 21.935-26.05 28.368-11.84 6.304-24.51 9.456-38.02 9.456m6.17-30.877q13.125 0 25.86-6.754c8.62-4.503 15.7-11.644 21.23-21.421q8.49-14.86 8.49-38.983 0-22.386-8.49-37.438c-5.53-10.164-12.61-17.755-21.23-22.772q-12.735-7.72-25.86-7.72c-11.83 0-22 2.959-30.49 8.877s-14.98 14.024-19.49 24.316q-6.75 15.246-6.75 34.737 0 18.333 6.75 33.579c4.51 10.164 11 18.333 19.49 24.509 8.49 6.047 18.66 9.07 30.49 9.07M130.119 675.278q-18.334 0-29.141-6.562-10.614-6.755-15.245-17.175-4.632-10.422-4.632-21.807V397.932l34.737-6.851v218.583q0 16.21 2.123 24.315 2.122 8.106 8.491 10.807 6.561 2.703 19.877 2.702l-5.017 27.79z"/><path fill="#9D44B5" d="M242.22 675.278q-33.385 0-56.158-13.702-22.772-13.702-34.543-36.281-11.58-22.772-11.579-49.982 0-26.439 10.807-48.439 11-22 31.649-35.123 20.842-13.315 50.175-13.315 23.544 0 41.877 9.456 18.526 9.262 28.948 27.21 10.614 17.755 10.614 43.228 0 4.053-.386 8.878-.193 4.631-1.158 9.649H175.448q2.51 26.245 12.544 40.912t25.281 20.649q15.246 5.983 33.193 5.983 13.123 0 27.403-2.702 14.281-2.702 27.018-8.491l4.631 27.403q-11 4.824-26.824 9.842-15.825 4.825-36.474 4.825m-63.684-122.351h99.579q0-13.316-5.018-23.158t-15.245-15.053q-10.228-5.403-26.053-5.403-23.157 0-35.702 11.579-12.35 11.386-17.561 32.035M373.726 675.278q-17.562 0-30.685-7.141-13.122-7.14-20.456-19.491-7.14-12.351-7.14-28.175 0-16.018 6.947-27.404 7.141-11.579 18.913-19.105 11.964-7.72 26.631-12.158 14.667-4.632 30.298-6.561 15.825-2.124 30.299-2.316 0-27.018-10.614-35.316t-30.685-8.298q-10.613 0-22.772 3.28-11.964 3.282-27.017 13.702l-5.018-28.175q11.386-8.685 28.369-14.088 16.982-5.596 35.701-5.596 23.93 0 38.597 8.491 14.667 8.298 21.421 28.175t6.754 54.035v38.597q0 13.509 1.158 22.386 1.351 8.684 5.79 13.123 4.63 4.245 14.666 4.245h3.474l-5.403 27.79h-2.702q-16.79 0-26.053-3.281-9.07-3.28-13.895-9.456t-8.684-15.053q-10.614 12.351-25.087 20.07-14.474 7.72-32.807 7.72m6.561-27.79q13.895 0 26.825-6.947 13.122-6.948 21.421-18.526v-45.158q-27.597.965-44.772 5.403-16.983 4.439-24.895 13.316t-7.912 22.965q0 15.245 8.105 22.193 8.298 6.754 21.228 6.754M499.668 671.418V482.295h28.561l4.246 31.263q14.473-17.947 27.597-26.438 13.315-8.684 28.368-8.684 4.824 0 8.877 1.158l-3.474 38.21q-2.508-.579-5.403-.772-2.702-.386-6.176-.386-15.052 0-27.789 6.754-12.544 6.562-17.754 14.474v133.544zM613.122 671.418V482.295h27.018l6.947 36.281-13.509-5.79q19.105-21.228 37.246-27.789 18.333-6.562 35.702-6.562 41.491 0 59.245 23.93 17.948 23.93 17.948 64.842v104.211h-34.737V567.207q0-30.105-11.193-44t-38.211-13.895q-19.105 0-35.122 8.492-15.824 8.298-20.843 26.631l4.246-21.228v148.211zM809.421 671.418V482.295h34.737v189.123zm0-231.579v-38.597h34.737v38.597zM871.915 671.418V482.295h27.017l6.947 36.281-13.508-5.79q19.105-21.228 37.245-27.789 18.334-6.562 35.702-6.562c27.661 0 47.412 7.977 59.242 23.93 11.97 15.953 17.95 37.567 17.95 64.842v104.211h-34.74V567.207q0-30.105-11.189-44-11.193-13.895-38.21-13.895-19.106 0-35.123 8.492-15.825 8.298-20.842 26.631l4.245-21.228v148.211zM1144.63 767.909c-17.23 0-32.67-2.123-46.31-6.369q-20.265-6.368-32.04-18.912-11.58-12.544-11.58-31.07c0-10.292 2.9-19.17 8.69-26.632q8.88-11 24.12-17.754c-6.04-2.959-10.68-6.433-13.89-10.421-3.09-4.117-4.63-8.62-4.63-13.509 0-5.789 1.73-11 5.21-15.631 3.6-4.761 9.32-8.685 17.17-11.772-10.55-6.562-18.65-15.375-24.31-26.439-5.66-11.193-8.5-23.608-8.5-37.246q0-20.649 9.27-37.245c6.17-11.193 15.05-20.07 26.63-26.632 11.71-6.561 25.73-9.842 42.07-9.842 8.75 0 16.98 1.287 24.7 3.86 7.85 2.573 15.05 6.175 21.62 10.807 5.78-3.345 12.6-6.111 20.45-8.298 7.98-2.188 16.86-3.281 26.63-3.281h3.09l-4.24 23.158h-8.88q-1.935 0-8.88.579c-4.63.386-8.88 1.093-12.74 2.123 5.28 6.175 9.33 13.122 12.16 20.842q4.44 11.386 4.44 23.929c0 14.41-3.15 27.34-9.46 38.79q-9.255 16.982-26.82 27.018c-11.71 6.561-25.73 9.842-42.07 9.842q-6.945 0-13.32-.772-6.36-.966-12.15-2.702-8.88 2.895-8.88 10.035c0 2.83 1.67 5.339 5.02 7.526 3.34 2.059 8.74 3.667 16.21 4.825l50.56 8.105q30.675 4.825 47.28 17.755c11.19 8.619 16.79 20.842 16.79 36.666q0 19.684-11.58 32.614c-7.59 8.749-18.4 15.246-32.42 19.491-14.03 4.375-30.49 6.562-49.41 6.562m3.09-30.877c17.76 0 30.24-2.702 39.77-7.334 9.52-4.503 15.43-10.807 15.43-19.684 0-6.947-3.03-12.415-9.07-16.403-5.92-3.989-14.48-7.012-25.67-9.071l-53.84-9.07c-7.08 3.088-13.25 7.205-18.53 12.351-5.27 5.275-7.91 11.386-7.91 18.333 0 10.807 5.4 18.655 16.21 23.544 10.93 4.889 25.47 7.334 43.61 7.334m-11.19-137.018c14.67 0 25.86-4.374 33.58-13.123q11.58-13.315 11.58-34.351 0-20.263-11.58-33.193c-7.72-8.748-18.91-13.122-33.58-13.122q-22.005 0-33.39 13.122c-7.59 8.62-11.38 19.685-11.38 33.193 0 14.024 3.79 25.474 11.38 34.351q11.385 13.123 33.39 13.123"/><g clip-path="url('#clip0_15520_6298')"><path fill="#FFC857" fill-rule="evenodd" d="M99.74 55.832c-20.505 0-38.446 10.888-46.99 28.31-5.98 13.067-5.98 28.311.854 41.378l13.67 26.132v14.519c0 7.259 6.835 13.066 15.378 13.066 0 4.356 3.418 7.259 8.544 7.259h15.378c5.126 0 8.544-2.903 8.544-7.259 8.543 0 15.378-5.807 15.378-13.066v-14.519l13.669-26.132c6.835-13.067 6.835-28.311.855-41.378-6.835-17.422-24.776-28.31-45.28-28.31m15.378 108.887H85.215v-7.259h29.903zm15.378-45.007-12.815 23.229h-.037v.026H81.808v-.026h-.01l-11.96-23.229c-5.127-9.437-5.127-20.325-.855-29.762 5.98-12.34 17.087-19.6 30.756-19.6s24.776 7.26 30.757 19.6a36.16 36.16 0 0 1 0 29.762" clip-rule="evenodd"/><path fill="#FFC857" fill-rule="evenodd" d="M99.263 55.832c-20.504 0-38.445 10.888-46.989 28.31-5.98 13.067-5.98 28.311.854 41.378l13.67 26.132v14.519c0 7.259 6.835 13.066 15.378 13.066 0 4.356 3.418 7.259 8.544 7.259h15.378c5.126 0 8.543-2.903 8.543-7.259 8.544 0 15.379-5.807 15.379-13.066v-14.519l13.669-26.132c6.835-13.067 6.835-28.311.855-41.378-6.835-17.422-24.776-28.31-45.28-28.31m15.378 108.887H84.739v-7.259h29.902zm15.379-45.007-12.815 23.229h-.037v.026H81.332v-.026h-.01L69.36 119.712c-5.126-9.437-5.126-20.325-.854-29.762 5.98-12.34 17.087-19.6 30.756-19.6s24.776 7.26 30.757 19.6a36.16 36.16 0 0 1 0 29.762" clip-rule="evenodd"/><path stroke="#FFC857" stroke-linecap="round" stroke-width="16.512" d="M98.365 5.674v27.52M153.746 56.565l24.1-13.286M165.796 112.836l28.55.176M13.521 43.278l26.07 12.914M-.476 113.413h27.992"/></g><defs><clipPath id="clip0_15520_6298"><path fill="#fff" d="M0 0h205.044v205.044H0z"/></clipPath></defs></svg>