<svg xmlns="http://www.w3.org/2000/svg" xmlns:xlink="http://www.w3.org/1999/xlink" width="75" zoomAndPan="magnify" viewBox="0 0 56.25 44.999999" height="60" preserveAspectRatio="xMidYMid meet" version="1.0"><defs><clipPath id="85ef050ff6"><path d="M 31.882812 14.351562 L 55.511719 14.351562 L 55.511719 31.375 L 31.882812 31.375 Z M 31.882812 14.351562 " clip-rule="nonzero"/></clipPath></defs><path fill="#a22b2b" d="M 42.8125 27.394531 C 42.648438 27.179688 42.457031 26.980469 42.246094 26.792969 C 41.855469 26.453125 41.519531 26.125 41.222656 25.804688 C 40.820312 26.769531 40.34375 28.144531 40.53125 28.875 C 40.792969 29.898438 40.90625 30.316406 40.894531 30.65625 C 40.894531 30.722656 40.964844 30.765625 41.023438 30.730469 L 42.929688 29.589844 C 42.976562 29.5625 42.988281 29.496094 42.945312 29.460938 C 42.695312 29.230469 42.019531 28.417969 42.8125 27.394531 Z M 42.8125 27.394531 " fill-opacity="1" fill-rule="nonzero"/><g clip-path="url(#85ef050ff6)"><path fill="#a22b2b" d="M 54.976562 29.359375 C 54.261719 28.292969 53.53125 25.847656 53.820312 24.230469 C 53.957031 23.445312 54.542969 22.429688 53.792969 20.453125 C 53.039062 18.46875 50.394531 17.667969 49.101562 17.585938 C 47.808594 17.507812 45.105469 16.152344 44.558594 15.527344 C 44.09375 14.988281 42.996094 14.765625 42.269531 14.808594 C 41.644531 14.84375 41.203125 15.242188 40.886719 15.242188 C 40.425781 15.242188 40.0625 14.703125 39.640625 14.539062 C 39.15625 14.351562 38.617188 14.375 38.105469 14.414062 C 37.679688 14.445312 37.214844 14.5 36.90625 14.789062 C 36.648438 15.023438 36.542969 15.375 36.511719 15.722656 C 36.484375 16.070312 36.523438 16.414062 36.503906 16.761719 C 36.457031 17.859375 35.890625 18.867188 35.730469 19.957031 C 35.609375 20.746094 35.710938 21.539062 35.8125 22.335938 C 37.394531 22.539062 38.917969 21.585938 39.414062 20.523438 C 38.941406 21.976562 36.730469 23.441406 34.59375 22.398438 C 33.191406 21.703125 32.429688 20.503906 32.074219 19.761719 C 32.03125 19.671875 31.894531 19.71875 31.917969 19.8125 C 32.097656 20.621094 32.558594 21.953125 33.761719 22.929688 C 34.359375 23.417969 35.136719 23.695312 35.957031 23.773438 C 36.007812 24.304688 36.074219 25.144531 36.074219 25.773438 C 36.074219 26.769531 36.191406 28.230469 36.488281 28.644531 C 36.785156 29.054688 37.117188 29.574219 38.066406 29.558594 C 38.949219 29.550781 39.394531 28.882812 39.582031 28.519531 C 39.601562 28.480469 39.585938 28.433594 39.542969 28.410156 L 39.125 28.203125 C 39.085938 28.183594 39.042969 28.195312 39.019531 28.226562 C 38.898438 28.390625 38.5 28.839844 37.976562 28.714844 C 37.339844 28.558594 37.304688 27.859375 37.363281 27.050781 C 37.410156 26.371094 37.574219 24.789062 37.628906 23.679688 C 38.398438 23.523438 39.121094 23.199219 39.6875 22.730469 C 39.710938 23.324219 39.53125 24.183594 39.664062 24.765625 C 39.722656 24.601562 39.800781 24.445312 39.882812 24.382812 C 39.914062 24.679688 39.988281 24.980469 40.097656 25.261719 C 40.128906 25.058594 40.253906 24.890625 40.363281 24.71875 C 40.390625 24.675781 40.414062 24.632812 40.4375 24.585938 C 40.460938 24.75 40.460938 24.921875 40.457031 25.085938 C 40.441406 25.453125 40.386719 25.628906 40.488281 25.984375 C 40.574219 25.742188 40.816406 25.4375 41.050781 25.230469 C 41.136719 25.335938 41.230469 25.441406 41.328125 25.554688 C 41.625 25.882812 41.984375 26.230469 42.414062 26.605469 C 42.632812 26.792969 42.816406 26.992188 42.980469 27.199219 C 44.105469 28.628906 44.003906 30.386719 43.722656 31.269531 C 43.703125 31.320312 43.746094 31.375 43.804688 31.375 L 46.167969 31.375 C 46.210938 31.375 46.25 31.34375 46.253906 31.296875 C 46.339844 29.550781 45.453125 27.089844 45.136719 26.277344 C 45.390625 26.582031 45.632812 27.019531 45.75 27.296875 C 45.789062 27.089844 45.820312 26.796875 45.757812 26.597656 C 45.980469 26.867188 45.941406 27.242188 46.164062 27.550781 C 46.222656 27.292969 46.277344 27.136719 46.429688 27.011719 C 46.429688 27.441406 46.683594 27.628906 46.8125 27.976562 C 46.832031 27.804688 46.910156 27.554688 47 27.3125 C 47.105469 27.582031 47.21875 27.847656 47.339844 28.109375 C 47.359375 27.992188 47.449219 27.621094 47.476562 27.503906 C 47.660156 26.796875 47.863281 26.269531 47.882812 26.222656 C 47.871094 26.296875 47.628906 27.667969 47.710938 28.953125 C 47.765625 29.828125 47.492188 30.75 47.296875 31.257812 C 47.28125 31.316406 47.316406 31.371094 47.378906 31.371094 L 49.847656 31.371094 C 49.898438 31.371094 49.9375 31.324219 49.929688 31.273438 C 49.75 30.273438 49.542969 28.558594 50 27.71875 C 50.117188 27.5 50.253906 27.324219 50.402344 27.175781 C 51.085938 26.480469 52.011719 26.359375 52.339844 25.226562 C 52.160156 26.386719 51.269531 26.628906 50.683594 27.398438 C 51.496094 28.050781 52.710938 29.085938 53.070312 29.753906 C 53.402344 30.386719 53.152344 30.921875 52.914062 31.242188 C 52.871094 31.296875 52.90625 31.371094 52.980469 31.371094 L 55.433594 31.371094 C 55.476562 31.371094 55.515625 31.339844 55.519531 31.296875 C 55.550781 30.796875 55.5 30.144531 54.976562 29.359375 Z M 54.976562 29.359375 " fill-opacity="1" fill-rule="nonzero"/></g><path stroke-linecap="butt" transform="matrix(0.0347474, 0, 0, 0.0347474, 0, 16.136891)" fill="none" stroke-linejoin="miter" d="M 281.383587 25.851303 L 281.383587 281.041372 L 248.557376 281.041372 L 248.557376 120.957382 L 157.610783 249.901439 L 156.936271 249.901439 L 67.675957 125.454123 L 67.675957 281.041372 L 35.524256 281.041372 L 35.524256 25.851303 L 35.861512 25.851303 L 157.610783 198.301332 L 281.046331 25.851303 Z M 548.377602 281.041372 L 515.326553 281.041372 L 515.326553 172.669907 L 385.595567 172.669907 L 385.595567 281.041372 L 352.544518 281.041372 L 352.544518 33.833019 L 385.595567 33.833019 L 385.595567 140.855462 L 515.326553 140.855462 L 515.326553 33.833019 L 548.377602 33.833019 Z M 801.094463 262.604733 C 793.112747 267.775985 782.995079 272.609982 770.741459 277.106723 C 758.600258 281.491046 745.334871 283.739417 730.945299 283.739417 C 705.763548 283.739417 683.39226 278.11849 664.16869 266.989055 C 644.832703 255.747202 630.105875 240.683119 619.76337 221.796805 C 609.308447 202.910492 604.137194 182.000645 604.137194 159.292101 C 604.137194 134.89728 609.420865 112.975666 619.875789 93.52726 C 630.330712 73.966435 644.832703 58.677515 663.494179 47.660498 C 682.043237 36.643482 703.065503 31.022556 726.560976 31.022556 C 740.500874 31.022556 753.429005 32.933671 765.570207 36.643482 C 777.59899 40.240875 788.391169 44.962454 798.059163 50.808217 L 784.681357 81.948151 C 765.682625 69.244857 746.683893 62.837 727.572743 62.837 C 711.609311 62.837 696.882483 67.108905 683.279841 75.540294 C 669.789617 83.971684 658.885019 95.438375 650.790885 109.827947 C 642.696751 124.329938 638.649684 140.180951 638.649684 157.493405 C 638.649684 175.367951 642.359495 191.443802 649.779118 205.833374 C 657.198741 220.110527 667.766084 231.352381 681.593563 239.558934 C 695.308624 247.540649 711.272056 251.587716 729.259021 251.587716 C 751.405472 251.587716 770.629041 245.292279 787.042147 232.701403 Z M 801.094463 262.604733 " stroke="#a22b2b" stroke-width="4.701373" stroke-opacity="1" stroke-miterlimit="4"/></svg>